<svg width="19" height="19" viewBox="0 0 19 19" fill="none" xmlns="http://www.w3.org/2000/svg">
<path d="M9.49998 7.125C8.87009 7.125 8.266 7.37522 7.8206 7.82062C7.3752 8.26602 7.12498 8.87011 7.12498 9.5C7.12498 10.1299 7.3752 10.734 7.8206 11.1794C8.266 11.6248 8.87009 11.875 9.49998 11.875C10.1299 11.875 10.734 11.6248 11.1794 11.1794C11.6248 10.734 11.875 10.1299 11.875 9.5C11.875 8.87011 11.6248 8.26602 11.1794 7.82062C10.734 7.37522 10.1299 7.125 9.49998 7.125ZM9.49998 13.4583C8.45017 13.4583 7.44335 13.0413 6.70102 12.299C5.95869 11.5566 5.54165 10.5498 5.54165 9.5C5.54165 8.45018 5.95869 7.44337 6.70102 6.70104C7.44335 5.9587 8.45017 5.54167 9.49998 5.54167C10.5498 5.54167 11.5566 5.9587 12.2989 6.70104C13.0413 7.44337 13.4583 8.45018 13.4583 9.5C13.4583 10.5498 13.0413 11.5566 12.2989 12.299C11.5566 13.0413 10.5498 13.4583 9.49998 13.4583V13.4583ZM9.49998 3.5625C5.54165 3.5625 2.16123 6.02458 0.791649 9.5C2.16123 12.9754 5.54165 15.4375 9.49998 15.4375C13.4583 15.4375 16.8387 12.9754 18.2083 9.5C16.8387 6.02458 13.4583 3.5625 9.49998 3.5625Z" fill="#BF9B9B"/>
</svg>
